<svg id="Layer_1" data-name="Layer 1" xmlns="http://www.w3.org/2000/svg" viewBox="0 0 800 600"><defs><style>.cls-1{fill:#e14a26;border-radius:20px}</style></defs><path class="cls-1" d="M259,265.05,206.81,334.6h-5.95l-51-69.78v86.25a30.21,30.21,0,0,1-30.2,30.2V221.13h34.77L204.52,290l50.1-68.86h34.54V381.27H259Z"/><path class="cls-1" d="M389.74,259.56c-5.49-9.15-20.59-17.85-38-17.85-22.42,0-33.18,9.38-33.18,21.28,0,13.95,16.48,17.84,35.7,20.13,33.39,4.12,64.51,12.81,64.51,51,0,35.68-31.57,51-67.26,51-32.71,0-57.88-10.07-69.78-39.36a36.15,36.15,0,0,1,37.83,3c8.82,6.37,20.44,9.31,32.41,9.31,19,0,36.83-6.63,36.83-24,0-15.1-15.79-21.28-37.06-23.56-32.71-3.9-62.92-12.59-62.92-48.5,0-32.95,32.49-46.44,62-46.68,24.94,0,50.79,7.1,62.92,31.8Z"/><path class="cls-1" d="M558.59,299.59c.69,40.5-24,81.44-80.07,81.44H415.61V220.9h62.91c54.91,0,79.39,39.12,80.07,78.69M445.58,352h32.94c36.38,0,50.79-26.54,50.11-52.61-.69-24.94-15.33-49.87-50.11-49.87H445.58Z"/><path class="cls-1" d="M650.94,259.56c-5.49-9.15-20.59-17.85-38-17.85-22.41,0-33.17,9.38-33.17,21.28,0,13.95,16.47,17.84,35.7,20.13,33.39,4.12,64.51,12.81,64.51,51,0,35.68-31.57,51-67.27,51-32.71,0-57.87-10.07-69.77-39.36a36.15,36.15,0,0,1,37.83,3c8.82,6.37,20.44,9.31,32.41,9.31,19,0,36.83-6.63,36.83-24,0-15.1-15.79-21.28-37.07-23.56-32.71-3.9-62.91-12.59-62.91-48.5,0-32.95,32.49-46.44,62-46.68,24.94,0,50.79,7.1,62.92,31.8Z"/></svg>